<svg viewBox="0 0 614 220" fill="none" xmlns="http://www.w3.org/2000/svg">
<path d="M331.904 50.7504C333.311 52.0915 335.007 51.1915 336.651 51.686C298.403 54.2487 261.291 63.1737 223.646 68.5635C214.374 69.8906 205.613 69.1101 197.965 62.9461C195.665 61.094 193.066 59.6639 190.175 58.8174C183.758 56.9411 180.878 58.2631 178.48 64.5249C176.235 70.3876 171.279 74.2329 167.772 79.1511C166.909 80.3626 165.302 80.271 163.915 80.4045C155.619 81.2079 147.336 82.1892 139.024 82.7524C134.474 83.0613 130.742 79.9545 127.221 77.885C101.721 62.8927 73.2188 54.9097 46.4744 42.8627C37.7414 38.9297 29.072 34.9814 20.8182 30.1243C16.1441 27.3721 11.2538 25.0395 5.68223 25.0281C0.605146 25.0154 -0.697814 27.3403 1.27506 31.9802C2.53988 34.9585 4.63353 37.2327 6.85556 39.4242C9.10555 41.6462 11.0301 43.8123 11.4026 47.2864C11.7712 50.7415 14.4419 51.7826 17.6212 50.8127C21.7779 49.5466 24.2453 50.7784 27.1843 54.2741C35.8346 64.5592 47.0592 72.1101 57.3506 80.6473C67.9167 89.4083 78.6124 98.0193 89.0475 106.934C94.8962 111.934 94.5543 112.7 90.6111 118.987C87.8386 123.41 83.5687 126.121 80.0933 129.719C76.5022 133.434 76.881 135.923 81.6073 138.008C88.595 141.091 95.6055 139.976 102.368 137.146C110.172 133.883 116.703 128.689 122.833 122.969C125.626 120.361 128.28 117.59 131.201 115.137C141.903 106.143 159.137 108.588 167.07 119.997C169.394 123.337 167.581 125.834 166.109 128.6C165.189 130.329 163.007 131.948 164.623 134.177C166.127 136.253 168.604 136.04 170.868 135.914C176.135 135.623 180.583 133.123 184.622 130.115C192.656 124.136 201.308 121.949 211.157 124.337C216.725 125.687 222.399 126.597 228.031 127.69C229.663 128.008 230.919 128.763 231.651 130.331C235.079 137.685 239.929 144.34 241.355 152.669C242.405 158.806 245.038 159.692 250.553 156.469C255.221 153.741 259.348 150.256 263.155 146.413C269.328 140.184 276.421 138.308 284.489 142.314C312.485 156.215 342.898 159.666 373.362 162.919C389.777 164.672 406.208 166.208 422.746 166.106C424.113 166.097 425.571 166.259 426.837 166.734C434.801 169.73 445.423 184.804 445.597 193.365C445.715 199.102 445.315 204.778 443.821 210.39C442.301 216.1 443.93 218.389 449.797 219.435C455.919 220.528 461.088 218.354 465.635 214.461C472.243 208.8 475.315 201.018 478.154 193.147C481.819 182.999 484.584 172.533 486.336 161.955C487.87 152.702 493.458 148.212 501.517 146.369C512.049 143.962 522.511 141.232 532.586 137.543C549.159 131.473 565.918 125.626 579.016 112.698C584.662 107.126 592.469 104.19 598.777 99.2295C603.184 95.7655 607.066 91.8172 610.915 87.8257C614.781 83.8177 613.98 80.027 608.475 79.23C594.011 77.1402 580.505 70.3864 565.754 70.2644C553.952 70.1677 542.666 67.38 531.273 65.097C503.298 59.4873 475.124 55.2008 446.755 52.2886C430.808 50.6526 416.851 45.5628 405.472 33.6887C398.158 26.0565 390.864 18.3074 382.535 11.6947C375.663 6.23881 368.351 1.62695 359.387 0.414266C349.898 -0.868359 346.605 2.4672 347.878 11.9286C349.657 25.1667 346.606 36.742 336.024 45.6899C334.702 46.806 333.523 48.0988 332.354 49.3801C332.053 49.7119 332.04 50.3068 331.904 50.7504Z" fill="#B2CBD0"/>
</svg>
